<svg width="307" height="48" viewBox="0 0 307 48" fill="none" xmlns="http://www.w3.org/2000/svg">
<path d="M0 -1.52588e-05H271.877L307 25.3714L271.877 48H0V-1.52588e-05Z" fill="#650000"/>
<path d="M35.27 21.075C34.49 21.075 33.765 20.945 33.095 20.685C32.435 20.415 31.86 20.04 31.37 19.56C30.88 19.08 30.5 18.52 30.23 17.88C29.96 17.23 29.825 16.52 29.825 15.75C29.825 14.98 29.96 14.275 30.23 13.635C30.5 12.985 30.88 12.42 31.37 11.94C31.87 11.46 32.45 11.09 33.11 10.83C33.77 10.56 34.49 10.425 35.27 10.425C36.01 10.425 36.7 10.545 37.34 10.785C37.99 11.025 38.545 11.39 39.005 11.88L38.525 12.375C38.075 11.935 37.575 11.62 37.025 11.43C36.485 11.23 35.91 11.13 35.3 11.13C34.63 11.13 34.005 11.245 33.425 11.475C32.855 11.705 32.355 12.03 31.925 12.45C31.505 12.87 31.175 13.36 30.935 13.92C30.705 14.48 30.59 15.09 30.59 15.75C30.59 16.41 30.705 17.02 30.935 17.58C31.175 18.14 31.505 18.63 31.925 19.05C32.355 19.47 32.855 19.795 33.425 20.025C34.005 20.255 34.63 20.37 35.3 20.37C35.91 20.37 36.485 20.275 37.025 20.085C37.575 19.885 38.075 19.56 38.525 19.11L39.005 19.605C38.545 20.095 37.99 20.465 37.34 20.715C36.7 20.955 36.01 21.075 35.27 21.075ZM44.0211 21.06C43.2711 21.06 42.6011 20.89 42.0111 20.55C41.4311 20.21 40.9661 19.74 40.6161 19.14C40.2761 18.54 40.1061 17.855 40.1061 17.085C40.1061 16.305 40.2761 15.62 40.6161 15.03C40.9661 14.43 41.4311 13.96 42.0111 13.62C42.6011 13.28 43.2711 13.11 44.0211 13.11C44.7711 13.11 45.4411 13.28 46.0311 13.62C46.6211 13.96 47.0861 14.43 47.4261 15.03C47.7661 15.62 47.9361 16.305 47.9361 17.085C47.9361 17.855 47.7661 18.54 47.4261 19.14C47.0861 19.74 46.6211 20.21 46.0311 20.55C45.4411 20.89 44.7711 21.06 44.0211 21.06ZM44.0211 20.385C44.6211 20.385 45.1611 20.25 45.6411 19.98C46.1211 19.7 46.4961 19.31 46.7661 18.81C47.0361 18.31 47.1711 17.735 47.1711 17.085C47.1711 16.425 47.0361 15.85 46.7661 15.36C46.4961 14.86 46.1211 14.475 45.6411 14.205C45.1611 13.925 44.6211 13.785 44.0211 13.785C43.4211 13.785 42.8811 13.925 42.4011 14.205C41.9311 14.475 41.5561 14.86 41.2761 15.36C41.0061 15.85 40.8711 16.425 40.8711 17.085C40.8711 17.735 41.0061 18.31 41.2761 18.81C41.5561 19.31 41.9311 19.7 42.4011 19.98C42.8811 20.25 43.4211 20.385 44.0211 20.385ZM54.0879 13.11C54.7279 13.11 55.2829 13.235 55.7529 13.485C56.2329 13.725 56.6029 14.095 56.8629 14.595C57.1329 15.085 57.2679 15.695 57.2679 16.425V21H56.5179V16.485C56.5179 15.605 56.2929 14.935 55.8429 14.475C55.4029 14.015 54.7829 13.785 53.9829 13.785C53.3729 13.785 52.8429 13.91 52.3929 14.16C51.9429 14.41 51.5979 14.76 51.3579 15.21C51.1279 15.66 51.0129 16.2 51.0129 16.83V21H50.2629V13.17H50.9829V15.345L50.8779 15.105C51.1179 14.485 51.5129 14 52.0629 13.65C52.6129 13.29 53.2879 13.11 54.0879 13.11ZM62.3356 21.06C61.6856 21.06 61.0756 20.965 60.5056 20.775C59.9456 20.585 59.5106 20.345 59.2006 20.055L59.5456 19.455C59.8456 19.715 60.2456 19.94 60.7456 20.13C61.2456 20.31 61.7856 20.4 62.3656 20.4C63.1856 20.4 63.7756 20.265 64.1356 19.995C64.4956 19.725 64.6756 19.37 64.6756 18.93C64.6756 18.61 64.5806 18.36 64.3906 18.18C64.2106 17.99 63.9656 17.845 63.6556 17.745C63.3456 17.645 63.0056 17.565 62.6356 17.505C62.2656 17.435 61.8956 17.36 61.5256 17.28C61.1556 17.2 60.8156 17.085 60.5056 16.935C60.1956 16.785 59.9456 16.58 59.7556 16.32C59.5756 16.05 59.4856 15.695 59.4856 15.255C59.4856 14.855 59.5956 14.495 59.8156 14.175C60.0356 13.855 60.3656 13.6 60.8056 13.41C61.2456 13.21 61.7956 13.11 62.4556 13.11C62.9456 13.11 63.4356 13.18 63.9256 13.32C64.4256 13.46 64.8306 13.645 65.1406 13.875L64.7956 14.475C64.4656 14.225 64.0956 14.045 63.6856 13.935C63.2756 13.825 62.8606 13.77 62.4406 13.77C61.6806 13.77 61.1206 13.91 60.7606 14.19C60.4106 14.47 60.2356 14.82 60.2356 15.24C60.2356 15.57 60.3256 15.835 60.5056 16.035C60.6956 16.225 60.9456 16.375 61.2556 16.485C61.5656 16.585 61.9056 16.67 62.2756 16.74C62.6456 16.8 63.0156 16.87 63.3856 16.95C63.7556 17.03 64.0956 17.145 64.4056 17.295C64.7156 17.435 64.9606 17.635 65.1406 17.895C65.3306 18.145 65.4256 18.485 65.4256 18.915C65.4256 19.345 65.3056 19.72 65.0656 20.04C64.8356 20.36 64.4906 20.61 64.0306 20.79C63.5706 20.97 63.0056 21.06 62.3356 21.06ZM70.6987 21.06C70.0287 21.06 69.4487 20.94 68.9587 20.7C68.4687 20.45 68.0887 20.08 67.8187 19.59C67.5587 19.09 67.4287 18.475 67.4287 17.745V13.17H68.1787V17.685C68.1787 18.565 68.4037 19.235 68.8537 19.695C69.3037 20.155 69.9387 20.385 70.7587 20.385C71.3487 20.385 71.8587 20.26 72.2887 20.01C72.7187 19.76 73.0487 19.41 73.2787 18.96C73.5087 18.5 73.6237 17.96 73.6237 17.34V13.17H74.3737V21H73.6537V18.825L73.7587 19.08C73.5287 19.69 73.1437 20.175 72.6037 20.535C72.0737 20.885 71.4387 21.06 70.6987 21.06ZM77.5529 21V9.86998H78.3029V21H77.5529ZM83.6415 21.06C82.9515 21.06 82.4215 20.87 82.0515 20.49C81.6915 20.11 81.5115 19.59 81.5115 18.93V11.46H82.2615V18.855C82.2615 19.355 82.3865 19.74 82.6365 20.01C82.8865 20.28 83.2465 20.415 83.7165 20.415C84.2065 20.415 84.6115 20.27 84.9315 19.98L85.2465 20.505C85.0465 20.695 84.8015 20.835 84.5115 20.925C84.2315 21.015 83.9415 21.06 83.6415 21.06ZM80.0715 13.815V13.17H84.7515V13.815H80.0715ZM92.273 21V19.215L92.243 18.945V16.005C92.243 15.275 92.043 14.72 91.643 14.34C91.253 13.96 90.678 13.77 89.918 13.77C89.378 13.77 88.873 13.865 88.403 14.055C87.943 14.235 87.548 14.47 87.218 14.76L86.843 14.22C87.233 13.87 87.703 13.6 88.253 13.41C88.803 13.21 89.378 13.11 89.978 13.11C90.948 13.11 91.693 13.355 92.213 13.845C92.733 14.335 92.993 15.065 92.993 16.035V21H92.273ZM89.453 21.06C88.873 21.06 88.368 20.97 87.938 20.79C87.518 20.6 87.193 20.335 86.963 19.995C86.743 19.655 86.633 19.265 86.633 18.825C86.633 18.425 86.723 18.065 86.903 17.745C87.093 17.415 87.403 17.15 87.833 16.95C88.263 16.74 88.838 16.635 89.558 16.635H92.438V17.22H89.573C88.763 17.22 88.193 17.37 87.863 17.67C87.543 17.97 87.383 18.345 87.383 18.795C87.383 19.295 87.573 19.695 87.953 19.995C88.333 20.295 88.868 20.445 89.558 20.445C90.218 20.445 90.773 20.295 91.223 19.995C91.683 19.695 92.023 19.26 92.243 18.69L92.453 19.2C92.243 19.77 91.883 20.225 91.373 20.565C90.873 20.895 90.233 21.06 89.453 21.06ZM103.116 21.06C102.326 21.06 101.626 20.89 101.016 20.55C100.416 20.21 99.9407 19.74 99.5907 19.14C99.2507 18.54 99.0807 17.855 99.0807 17.085C99.0807 16.305 99.2407 15.62 99.5607 15.03C99.8907 14.43 100.341 13.96 100.911 13.62C101.481 13.28 102.121 13.11 102.831 13.11C103.541 13.11 104.176 13.275 104.736 13.605C105.306 13.935 105.751 14.4 106.071 15C106.401 15.59 106.566 16.275 106.566 17.055C106.566 17.085 106.561 17.12 106.551 17.16C106.551 17.19 106.551 17.225 106.551 17.265H99.6357V16.68H106.146L105.846 16.965C105.856 16.355 105.726 15.81 105.456 15.33C105.196 14.84 104.841 14.46 104.391 14.19C103.941 13.91 103.421 13.77 102.831 13.77C102.251 13.77 101.731 13.91 101.271 14.19C100.821 14.46 100.466 14.84 100.206 15.33C99.9457 15.81 99.8157 16.36 99.8157 16.98V17.115C99.8157 17.755 99.9557 18.325 100.236 18.825C100.526 19.315 100.921 19.7 101.421 19.98C101.921 20.25 102.491 20.385 103.131 20.385C103.631 20.385 104.096 20.295 104.526 20.115C104.966 19.935 105.336 19.66 105.636 19.29L106.071 19.785C105.731 20.205 105.301 20.525 104.781 20.745C104.271 20.955 103.716 21.06 103.116 21.06ZM110.866 21.06C110.216 21.06 109.606 20.965 109.036 20.775C108.476 20.585 108.041 20.345 107.731 20.055L108.076 19.455C108.376 19.715 108.776 19.94 109.276 20.13C109.776 20.31 110.316 20.4 110.896 20.4C111.716 20.4 112.306 20.265 112.666 19.995C113.026 19.725 113.206 19.37 113.206 18.93C113.206 18.61 113.111 18.36 112.921 18.18C112.741 17.99 112.496 17.845 112.186 17.745C111.876 17.645 111.536 17.565 111.166 17.505C110.796 17.435 110.426 17.36 110.056 17.28C109.686 17.2 109.346 17.085 109.036 16.935C108.726 16.785 108.476 16.58 108.286 16.32C108.106 16.05 108.016 15.695 108.016 15.255C108.016 14.855 108.126 14.495 108.346 14.175C108.566 13.855 108.896 13.6 109.336 13.41C109.776 13.21 110.326 13.11 110.986 13.11C111.476 13.11 111.966 13.18 112.456 13.32C112.956 13.46 113.361 13.645 113.671 13.875L113.326 14.475C112.996 14.225 112.626 14.045 112.216 13.935C111.806 13.825 111.391 13.77 110.971 13.77C110.211 13.77 109.651 13.91 109.291 14.19C108.941 14.47 108.766 14.82 108.766 15.24C108.766 15.57 108.856 15.835 109.036 16.035C109.226 16.225 109.476 16.375 109.786 16.485C110.096 16.585 110.436 16.67 110.806 16.74C111.176 16.8 111.546 16.87 111.916 16.95C112.286 17.03 112.626 17.145 112.936 17.295C113.246 17.435 113.491 17.635 113.671 17.895C113.861 18.145 113.956 18.485 113.956 18.915C113.956 19.345 113.836 19.72 113.596 20.04C113.366 20.36 113.021 20.61 112.561 20.79C112.101 20.97 111.536 21.06 110.866 21.06ZM118.329 21.06C117.639 21.06 117.109 20.87 116.739 20.49C116.379 20.11 116.199 19.59 116.199 18.93V11.46H116.949V18.855C116.949 19.355 117.074 19.74 117.324 20.01C117.574 20.28 117.934 20.415 118.404 20.415C118.894 20.415 119.299 20.27 119.619 19.98L119.934 20.505C119.734 20.695 119.489 20.835 119.199 20.925C118.919 21.015 118.629 21.06 118.329 21.06ZM114.759 13.815V13.17H119.439V13.815H114.759ZM126.961 21V19.215L126.931 18.945V16.005C126.931 15.275 126.731 14.72 126.331 14.34C125.941 13.96 125.366 13.77 124.606 13.77C124.066 13.77 123.561 13.865 123.091 14.055C122.631 14.235 122.236 14.47 121.906 14.76L121.531 14.22C121.921 13.87 122.391 13.6 122.941 13.41C123.491 13.21 124.066 13.11 124.666 13.11C125.636 13.11 126.381 13.355 126.901 13.845C127.421 14.335 127.681 15.065 127.681 16.035V21H126.961ZM124.141 21.06C123.561 21.06 123.056 20.97 122.626 20.79C122.206 20.6 121.881 20.335 121.651 19.995C121.431 19.655 121.321 19.265 121.321 18.825C121.321 18.425 121.411 18.065 121.591 17.745C121.781 17.415 122.091 17.15 122.521 16.95C122.951 16.74 123.526 16.635 124.246 16.635H127.126V17.22H124.261C123.451 17.22 122.881 17.37 122.551 17.67C122.231 17.97 122.071 18.345 122.071 18.795C122.071 19.295 122.261 19.695 122.641 19.995C123.021 20.295 123.556 20.445 124.246 20.445C124.906 20.445 125.461 20.295 125.911 19.995C126.371 19.695 126.711 19.26 126.931 18.69L127.141 19.2C126.931 19.77 126.571 20.225 126.061 20.565C125.561 20.895 124.921 21.06 124.141 21.06ZM134.623 21V13.17H135.373V21H134.623ZM134.998 11.265C134.828 11.265 134.683 11.205 134.563 11.085C134.443 10.965 134.383 10.825 134.383 10.665C134.383 10.495 134.443 10.35 134.563 10.23C134.683 10.11 134.828 10.05 134.998 10.05C135.178 10.05 135.323 10.11 135.433 10.23C135.553 10.34 135.613 10.48 135.613 10.65C135.613 10.82 135.553 10.965 135.433 11.085C135.323 11.205 135.178 11.265 134.998 11.265ZM142.359 13.11C142.999 13.11 143.554 13.235 144.024 13.485C144.504 13.725 144.874 14.095 145.134 14.595C145.404 15.085 145.539 15.695 145.539 16.425V21H144.789V16.485C144.789 15.605 144.564 14.935 144.114 14.475C143.674 14.015 143.054 13.785 142.254 13.785C141.644 13.785 141.114 13.91 140.664 14.16C140.214 14.41 139.869 14.76 139.629 15.21C139.399 15.66 139.284 16.2 139.284 16.83V21H138.534V13.17H139.254V15.345L139.149 15.105C139.389 14.485 139.784 14 140.334 13.65C140.884 13.29 141.559 13.11 142.359 13.11ZM148.777 21V11.97C148.777 11.32 148.962 10.8 149.332 10.41C149.712 10.01 150.252 9.80998 150.952 9.80998C151.242 9.80998 151.527 9.85498 151.807 9.94498C152.087 10.025 152.317 10.15 152.497 10.32L152.197 10.89C152.047 10.74 151.867 10.63 151.657 10.56C151.447 10.49 151.222 10.455 150.982 10.455C150.502 10.455 150.137 10.59 149.887 10.86C149.637 11.12 149.512 11.51 149.512 12.03V13.35L149.527 13.71V21H148.777ZM147.337 13.815V13.17H152.017V13.815H147.337ZM156.477 21.06C155.727 21.06 155.057 20.89 154.467 20.55C153.887 20.21 153.422 19.74 153.072 19.14C152.732 18.54 152.562 17.855 152.562 17.085C152.562 16.305 152.732 15.62 153.072 15.03C153.422 14.43 153.887 13.96 154.467 13.62C155.057 13.28 155.727 13.11 156.477 13.11C157.227 13.11 157.897 13.28 158.487 13.62C159.077 13.96 159.542 14.43 159.882 15.03C160.222 15.62 160.392 16.305 160.392 17.085C160.392 17.855 160.222 18.54 159.882 19.14C159.542 19.74 159.077 20.21 158.487 20.55C157.897 20.89 157.227 21.06 156.477 21.06ZM156.477 20.385C157.077 20.385 157.617 20.25 158.097 19.98C158.577 19.7 158.952 19.31 159.222 18.81C159.492 18.31 159.627 17.735 159.627 17.085C159.627 16.425 159.492 15.85 159.222 15.36C158.952 14.86 158.577 14.475 158.097 14.205C157.617 13.925 157.077 13.785 156.477 13.785C155.877 13.785 155.337 13.925 154.857 14.205C154.387 14.475 154.012 14.86 153.732 15.36C153.462 15.85 153.327 16.425 153.327 17.085C153.327 17.735 153.462 18.31 153.732 18.81C154.012 19.31 154.387 19.7 154.857 19.98C155.337 20.25 155.877 20.385 156.477 20.385ZM162.719 21V13.17H163.439V15.315L163.364 15.075C163.584 14.445 163.954 13.96 164.474 13.62C164.994 13.28 165.644 13.11 166.424 13.11V13.845C166.394 13.845 166.364 13.845 166.334 13.845C166.304 13.835 166.274 13.83 166.244 13.83C165.374 13.83 164.694 14.105 164.204 14.655C163.714 15.195 163.469 15.95 163.469 16.92V21H162.719ZM178.24 13.11C178.87 13.11 179.415 13.235 179.875 13.485C180.345 13.725 180.71 14.095 180.97 14.595C181.23 15.085 181.36 15.695 181.36 16.425V21H180.61V16.485C180.61 15.605 180.395 14.935 179.965 14.475C179.535 14.015 178.935 13.785 178.165 13.785C177.575 13.785 177.065 13.91 176.635 14.16C176.205 14.41 175.875 14.76 175.645 15.21C175.415 15.66 175.3 16.2 175.3 16.83V21H174.55V16.485C174.55 15.605 174.335 14.935 173.905 14.475C173.475 14.015 172.875 13.785 172.105 13.785C171.515 13.785 171.005 13.91 170.575 14.16C170.145 14.41 169.815 14.76 169.585 15.21C169.355 15.66 169.24 16.2 169.24 16.83V21H168.49V13.17H169.21V15.33L169.105 15.09C169.335 14.48 169.72 14 170.26 13.65C170.8 13.29 171.45 13.11 172.21 13.11C172.99 13.11 173.645 13.31 174.175 13.71C174.715 14.1 175.055 14.685 175.195 15.465L174.94 15.36C175.15 14.69 175.545 14.15 176.125 13.74C176.705 13.32 177.41 13.11 178.24 13.11ZM189.392 21V19.215L189.362 18.945V16.005C189.362 15.275 189.162 14.72 188.762 14.34C188.372 13.96 187.797 13.77 187.037 13.77C186.497 13.77 185.992 13.865 185.522 14.055C185.062 14.235 184.667 14.47 184.337 14.76L183.962 14.22C184.352 13.87 184.822 13.6 185.372 13.41C185.922 13.21 186.497 13.11 187.097 13.11C188.067 13.11 188.812 13.355 189.332 13.845C189.852 14.335 190.112 15.065 190.112 16.035V21H189.392ZM186.572 21.06C185.992 21.06 185.487 20.97 185.057 20.79C184.637 20.6 184.312 20.335 184.082 19.995C183.862 19.655 183.752 19.265 183.752 18.825C183.752 18.425 183.842 18.065 184.022 17.745C184.212 17.415 184.522 17.15 184.952 16.95C185.382 16.74 185.957 16.635 186.677 16.635H189.557V17.22H186.692C185.882 17.22 185.312 17.37 184.982 17.67C184.662 17.97 184.502 18.345 184.502 18.795C184.502 19.295 184.692 19.695 185.072 19.995C185.452 20.295 185.987 20.445 186.677 20.445C187.337 20.445 187.892 20.295 188.342 19.995C188.802 19.695 189.142 19.26 189.362 18.69L189.572 19.2C189.362 19.77 189.002 20.225 188.492 20.565C187.992 20.895 187.352 21.06 186.572 21.06ZM196.307 21.06C195.547 21.06 194.867 20.89 194.267 20.55C193.677 20.21 193.207 19.74 192.857 19.14C192.517 18.54 192.347 17.855 192.347 17.085C192.347 16.305 192.517 15.615 192.857 15.015C193.207 14.415 193.677 13.95 194.267 13.62C194.867 13.28 195.547 13.11 196.307 13.11C196.937 13.11 197.507 13.23 198.017 13.47C198.537 13.71 198.957 14.07 199.277 14.55L198.722 14.955C198.442 14.555 198.092 14.26 197.672 14.07C197.252 13.88 196.797 13.785 196.307 13.785C195.697 13.785 195.147 13.925 194.657 14.205C194.177 14.475 193.797 14.86 193.517 15.36C193.247 15.85 193.112 16.425 193.112 17.085C193.112 17.745 193.247 18.325 193.517 18.825C193.797 19.315 194.177 19.7 194.657 19.98C195.147 20.25 195.697 20.385 196.307 20.385C196.797 20.385 197.252 20.29 197.672 20.1C198.092 19.91 198.442 19.615 198.722 19.215L199.277 19.62C198.957 20.1 198.537 20.46 198.017 20.7C197.507 20.94 196.937 21.06 196.307 21.06ZM201.391 21V13.17H202.141V21H201.391ZM201.766 11.265C201.596 11.265 201.451 11.205 201.331 11.085C201.211 10.965 201.151 10.825 201.151 10.665C201.151 10.495 201.211 10.35 201.331 10.23C201.451 10.11 201.596 10.05 201.766 10.05C201.946 10.05 202.091 10.11 202.201 10.23C202.321 10.34 202.381 10.48 202.381 10.65C202.381 10.82 202.321 10.965 202.201 11.085C202.091 11.205 201.946 11.265 201.766 11.265ZM208.362 21.06C207.612 21.06 206.942 20.89 206.352 20.55C205.772 20.21 205.307 19.74 204.957 19.14C204.617 18.54 204.447 17.855 204.447 17.085C204.447 16.305 204.617 15.62 204.957 15.03C205.307 14.43 205.772 13.96 206.352 13.62C206.942 13.28 207.612 13.11 208.362 13.11C209.112 13.11 209.782 13.28 210.372 13.62C210.962 13.96 211.427 14.43 211.767 15.03C212.107 15.62 212.277 16.305 212.277 17.085C212.277 17.855 212.107 18.54 211.767 19.14C211.427 19.74 210.962 20.21 210.372 20.55C209.782 20.89 209.112 21.06 208.362 21.06ZM208.362 20.385C208.962 20.385 209.502 20.25 209.982 19.98C210.462 19.7 210.837 19.31 211.107 18.81C211.377 18.31 211.512 17.735 211.512 17.085C211.512 16.425 211.377 15.85 211.107 15.36C210.837 14.86 210.462 14.475 209.982 14.205C209.502 13.925 208.962 13.785 208.362 13.785C207.762 13.785 207.222 13.925 206.742 14.205C206.272 14.475 205.897 14.86 205.617 15.36C205.347 15.85 205.212 16.425 205.212 17.085C205.212 17.735 205.347 18.31 205.617 18.81C205.897 19.31 206.272 19.7 206.742 19.98C207.222 20.25 207.762 20.385 208.362 20.385ZM218.429 13.11C219.069 13.11 219.624 13.235 220.094 13.485C220.574 13.725 220.944 14.095 221.204 14.595C221.474 15.085 221.609 15.695 221.609 16.425V21H220.859V16.485C220.859 15.605 220.634 14.935 220.184 14.475C219.744 14.015 219.124 13.785 218.324 13.785C217.714 13.785 217.184 13.91 216.734 14.16C216.284 14.41 215.939 14.76 215.699 15.21C215.469 15.66 215.354 16.2 215.354 16.83V21H214.604V13.17H215.324V15.345L215.219 15.105C215.459 14.485 215.854 14 216.404 13.65C216.954 13.29 217.629 13.11 218.429 13.11ZM231.729 21.06C230.939 21.06 230.239 20.89 229.629 20.55C229.029 20.21 228.554 19.74 228.204 19.14C227.864 18.54 227.694 17.855 227.694 17.085C227.694 16.305 227.854 15.62 228.174 15.03C228.504 14.43 228.954 13.96 229.524 13.62C230.094 13.28 230.734 13.11 231.444 13.11C232.154 13.11 232.789 13.275 233.349 13.605C233.919 13.935 234.364 14.4 234.684 15C235.014 15.59 235.179 16.275 235.179 17.055C235.179 17.085 235.174 17.12 235.164 17.16C235.164 17.19 235.164 17.225 235.164 17.265H228.249V16.68H234.759L234.459 16.965C234.469 16.355 234.339 15.81 234.069 15.33C233.809 14.84 233.454 14.46 233.004 14.19C232.554 13.91 232.034 13.77 231.444 13.77C230.864 13.77 230.344 13.91 229.884 14.19C229.434 14.46 229.079 14.84 228.819 15.33C228.559 15.81 228.429 16.36 228.429 16.98V17.115C228.429 17.755 228.569 18.325 228.849 18.825C229.139 19.315 229.534 19.7 230.034 19.98C230.534 20.25 231.104 20.385 231.744 20.385C232.244 20.385 232.709 20.295 233.139 20.115C233.579 19.935 233.949 19.66 234.249 19.29L234.684 19.785C234.344 20.205 233.914 20.525 233.394 20.745C232.884 20.955 232.329 21.06 231.729 21.06ZM241.324 13.11C241.964 13.11 242.519 13.235 242.989 13.485C243.469 13.725 243.839 14.095 244.099 14.595C244.369 15.085 244.504 15.695 244.504 16.425V21H243.754V16.485C243.754 15.605 243.529 14.935 243.079 14.475C242.639 14.015 242.019 13.785 241.219 13.785C240.609 13.785 240.079 13.91 239.629 14.16C239.179 14.41 238.834 14.76 238.594 15.21C238.364 15.66 238.249 16.2 238.249 16.83V21H237.499V13.17H238.219V15.345L238.114 15.105C238.354 14.485 238.749 14 239.299 13.65C239.849 13.29 240.524 13.11 241.324 13.11ZM251.354 14.385C251.184 14.385 251.034 14.325 250.904 14.205C250.784 14.075 250.724 13.92 250.724 13.74C250.724 13.56 250.784 13.41 250.904 13.29C251.034 13.17 251.184 13.11 251.354 13.11C251.524 13.11 251.669 13.17 251.789 13.29C251.919 13.41 251.984 13.56 251.984 13.74C251.984 13.92 251.919 14.075 251.789 14.205C251.669 14.325 251.524 14.385 251.354 14.385ZM251.354 21.06C251.184 21.06 251.034 21 250.904 20.88C250.784 20.75 250.724 20.595 250.724 20.415C250.724 20.235 250.784 20.085 250.904 19.965C251.034 19.845 251.184 19.785 251.354 19.785C251.524 19.785 251.669 19.845 251.789 19.965C251.919 20.085 251.984 20.235 251.984 20.415C251.984 20.595 251.919 20.75 251.789 20.88C251.669 21 251.524 21.06 251.354 21.06Z" fill="white"/>
<path d="M32.12 37L29.016 28.392H31.368L33.944 35.8H32.824L35.512 28.392H37.624L40.232 35.8H39.112L41.768 28.392H43.976L40.856 37H38.44L36.152 30.648H36.888L34.52 37H32.12ZM46.9013 37L43.7973 28.392H46.1493L48.7253 35.8H47.6053L50.2933 28.392H52.4053L55.0133 35.8H53.8933L56.5493 28.392H58.7573L55.6373 37H53.2213L50.9333 30.648H51.6693L49.3013 37H46.9013ZM61.6825 37L58.5785 28.392H60.9305L63.5065 35.8H62.3865L65.0745 28.392H67.1865L69.7945 35.8H68.6745L71.3305 28.392H73.5385L70.4185 37H68.0025L65.7145 30.648H66.4505L64.0825 37H61.6825ZM75.1273 37.128C74.7006 37.128 74.3326 36.984 74.0233 36.696C73.7246 36.3973 73.5753 36.0187 73.5753 35.56C73.5753 35.1013 73.7246 34.7333 74.0233 34.456C74.3326 34.168 74.7006 34.024 75.1273 34.024C75.5646 34.024 75.9326 34.168 76.2313 34.456C76.5299 34.7333 76.6793 35.1013 76.6793 35.56C76.6793 36.0187 76.5299 36.3973 76.2313 36.696C75.9326 36.984 75.5646 37.128 75.1273 37.128ZM82.3094 40.232C81.4987 40.232 80.7147 40.1307 79.9574 39.928C79.2107 39.736 78.5867 39.4427 78.0854 39.048L79.0774 37.256C79.44 37.5547 79.8987 37.7893 80.4534 37.96C81.0187 38.1413 81.5734 38.232 82.1174 38.232C83.0027 38.232 83.6427 38.0347 84.0374 37.64C84.4427 37.2453 84.6454 36.6587 84.6454 35.88V34.584L84.8054 32.424L84.7734 30.248V28.392H87.1414V35.56C87.1414 37.16 86.7254 38.3387 85.8934 39.096C85.0614 39.8533 83.8667 40.232 82.3094 40.232ZM81.9254 36.584C81.1254 36.584 80.4 36.4133 79.7494 36.072C79.1094 35.72 78.592 35.2347 78.1974 34.616C77.8134 33.9867 77.6214 33.256 77.6214 32.424C77.6214 31.5813 77.8134 30.8507 78.1974 30.232C78.592 29.6027 79.1094 29.1173 79.7494 28.776C80.4 28.4347 81.1254 28.264 81.9254 28.264C82.6507 28.264 83.2907 28.4133 83.8454 28.712C84.4 29 84.832 29.4533 85.1414 30.072C85.4507 30.68 85.6054 31.464 85.6054 32.424C85.6054 33.3733 85.4507 34.1573 85.1414 34.776C84.832 35.384 84.4 35.8373 83.8454 36.136C83.2907 36.4347 82.6507 36.584 81.9254 36.584ZM82.4214 34.536C82.8587 34.536 83.248 34.4507 83.5894 34.28C83.9307 34.0987 84.1974 33.848 84.3894 33.528C84.5814 33.208 84.6774 32.84 84.6774 32.424C84.6774 31.9973 84.5814 31.6293 84.3894 31.32C84.1974 31 83.9307 30.7547 83.5894 30.584C83.248 30.4027 82.8587 30.312 82.4214 30.312C81.984 30.312 81.5947 30.4027 81.2534 30.584C80.912 30.7547 80.64 31 80.4374 31.32C80.2454 31.6293 80.1494 31.9973 80.1494 32.424C80.1494 32.84 80.2454 33.208 80.4374 33.528C80.64 33.848 80.912 34.0987 81.2534 34.28C81.5947 34.4507 81.984 34.536 82.4214 34.536ZM93.5605 37.128C92.6432 37.128 91.8272 36.936 91.1125 36.552C90.4085 36.168 89.8485 35.6453 89.4325 34.984C89.0272 34.312 88.8245 33.5493 88.8245 32.696C88.8245 31.832 89.0272 31.0693 89.4325 30.408C89.8485 29.736 90.4085 29.2133 91.1125 28.84C91.8272 28.456 92.6432 28.264 93.5605 28.264C94.4672 28.264 95.2778 28.456 95.9925 28.84C96.7072 29.2133 97.2672 29.7307 97.6725 30.392C98.0778 31.0533 98.2805 31.8213 98.2805 32.696C98.2805 33.5493 98.0778 34.312 97.6725 34.984C97.2672 35.6453 96.7072 36.168 95.9925 36.552C95.2778 36.936 94.4672 37.128 93.5605 37.128ZM93.5605 35.08C93.9765 35.08 94.3498 34.984 94.6805 34.792C95.0112 34.6 95.2725 34.328 95.4645 33.976C95.6565 33.6133 95.7525 33.1867 95.7525 32.696C95.7525 32.1947 95.6565 31.768 95.4645 31.416C95.2725 31.064 95.0112 30.792 94.6805 30.6C94.3498 30.408 93.9765 30.312 93.5605 30.312C93.1445 30.312 92.7712 30.408 92.4405 30.6C92.1098 30.792 91.8432 31.064 91.6405 31.416C91.4485 31.768 91.3525 32.1947 91.3525 32.696C91.3525 33.1867 91.4485 33.6133 91.6405 33.976C91.8432 34.328 92.1098 34.6 92.4405 34.792C92.7712 34.984 93.1445 35.08 93.5605 35.08ZM105.037 37.128C104.28 37.128 103.629 36.968 103.085 36.648C102.541 36.328 102.125 35.8427 101.837 35.192C101.549 34.5307 101.405 33.6987 101.405 32.696C101.405 31.6827 101.554 30.8507 101.853 30.2C102.162 29.5493 102.589 29.064 103.133 28.744C103.677 28.424 104.312 28.264 105.037 28.264C105.848 28.264 106.573 28.4453 107.213 28.808C107.864 29.1707 108.376 29.6827 108.749 30.344C109.133 31.0053 109.325 31.7893 109.325 32.696C109.325 33.592 109.133 34.3707 108.749 35.032C108.376 35.6933 107.864 36.2107 107.213 36.584C106.573 36.9467 105.848 37.128 105.037 37.128ZM99.9489 37V25.128H102.445V30.136L102.285 32.68L102.333 35.24V37H99.9489ZM104.605 35.08C105.021 35.08 105.389 34.984 105.709 34.792C106.04 34.6 106.301 34.328 106.493 33.976C106.696 33.6133 106.797 33.1867 106.797 32.696C106.797 32.1947 106.696 31.768 106.493 31.416C106.301 31.064 106.04 30.792 105.709 30.6C105.389 30.408 105.021 30.312 104.605 30.312C104.189 30.312 103.816 30.408 103.485 30.6C103.154 30.792 102.893 31.064 102.701 31.416C102.509 31.768 102.413 32.1947 102.413 32.696C102.413 33.1867 102.509 33.6133 102.701 33.976C102.893 34.328 103.154 34.6 103.485 34.792C103.816 34.984 104.189 35.08 104.605 35.08ZM111.83 37.128C111.404 37.128 111.036 36.984 110.726 36.696C110.428 36.3973 110.278 36.0187 110.278 35.56C110.278 35.1013 110.428 34.7333 110.726 34.456C111.036 34.168 111.404 34.024 111.83 34.024C112.268 34.024 112.636 34.168 112.934 34.456C113.233 34.7333 113.382 35.1013 113.382 35.56C113.382 36.0187 113.233 36.3973 112.934 36.696C112.636 36.984 112.268 37.128 111.83 37.128ZM126.098 28.264C126.781 28.264 127.383 28.4027 127.906 28.68C128.439 28.9467 128.855 29.3627 129.154 29.928C129.463 30.4827 129.618 31.1973 129.618 32.072V37H127.122V32.456C127.122 31.7627 126.978 31.2507 126.69 30.92C126.402 30.5893 125.997 30.424 125.474 30.424C125.111 30.424 124.786 30.5093 124.498 30.68C124.21 30.84 123.986 31.0853 123.826 31.416C123.666 31.7467 123.586 32.168 123.586 32.68V37H121.09V32.456C121.09 31.7627 120.946 31.2507 120.658 30.92C120.381 30.5893 119.981 30.424 119.458 30.424C119.095 30.424 118.77 30.5093 118.482 30.68C118.194 30.84 117.97 31.0853 117.81 31.416C117.65 31.7467 117.57 32.168 117.57 32.68V37H115.074V28.392H117.458V30.744L117.01 30.056C117.309 29.4693 117.73 29.0267 118.274 28.728C118.829 28.4187 119.458 28.264 120.162 28.264C120.951 28.264 121.639 28.4667 122.226 28.872C122.823 29.2667 123.218 29.8747 123.41 30.696L122.53 30.456C122.818 29.784 123.277 29.2507 123.906 28.856C124.546 28.4613 125.277 28.264 126.098 28.264ZM130.767 37L134.623 31.944L134.575 33.32L130.879 28.392H133.679L136.015 31.608L134.959 31.64L137.375 28.392H140.031L136.319 33.272V31.928L140.159 37H137.327L134.879 33.576L135.919 33.72L133.487 37H130.767ZM139.847 38.6L145.127 23.528H147.351L142.071 38.6H139.847ZM149.657 37.128C148.921 37.128 148.212 37.0427 147.529 36.872C146.857 36.6907 146.324 36.4667 145.929 36.2L146.761 34.408C147.156 34.6533 147.62 34.856 148.153 35.016C148.697 35.1653 149.231 35.24 149.753 35.24C150.329 35.24 150.735 35.1707 150.969 35.032C151.215 34.8933 151.337 34.7013 151.337 34.456C151.337 34.2533 151.241 34.104 151.049 34.008C150.868 33.9013 150.623 33.8213 150.313 33.768C150.004 33.7147 149.663 33.6613 149.289 33.608C148.927 33.5547 148.559 33.4853 148.185 33.4C147.812 33.304 147.471 33.1653 147.161 32.984C146.852 32.8027 146.601 32.5573 146.409 32.248C146.228 31.9387 146.137 31.5387 146.137 31.048C146.137 30.504 146.292 30.024 146.601 29.608C146.921 29.192 147.38 28.8667 147.977 28.632C148.575 28.3867 149.289 28.264 150.121 28.264C150.708 28.264 151.305 28.328 151.913 28.456C152.521 28.584 153.028 28.7707 153.433 29.016L152.601 30.792C152.185 30.5467 151.764 30.3813 151.337 30.296C150.921 30.2 150.516 30.152 150.121 30.152C149.567 30.152 149.161 30.2267 148.905 30.376C148.649 30.5253 148.521 30.7173 148.521 30.952C148.521 31.1653 148.612 31.3253 148.793 31.432C148.985 31.5387 149.236 31.624 149.545 31.688C149.855 31.752 150.191 31.8107 150.553 31.864C150.927 31.9067 151.3 31.976 151.673 32.072C152.047 32.168 152.383 32.3067 152.681 32.488C152.991 32.6587 153.241 32.8987 153.433 33.208C153.625 33.5067 153.721 33.9013 153.721 34.392C153.721 34.9253 153.561 35.4 153.241 35.816C152.921 36.2213 152.457 36.5413 151.849 36.776C151.252 37.0107 150.521 37.128 149.657 37.128ZM159.533 37.128C158.552 37.128 157.688 36.936 156.941 36.552C156.205 36.168 155.635 35.6453 155.229 34.984C154.824 34.312 154.621 33.5493 154.621 32.696C154.621 31.832 154.819 31.0693 155.213 30.408C155.619 29.736 156.168 29.2133 156.861 28.84C157.555 28.456 158.339 28.264 159.213 28.264C160.056 28.264 160.813 28.4453 161.485 28.808C162.168 29.16 162.707 29.672 163.101 30.344C163.496 31.0053 163.693 31.8 163.693 32.728C163.693 32.824 163.688 32.936 163.677 33.064C163.667 33.1813 163.656 33.2933 163.645 33.4H156.653V31.944H162.333L161.373 32.376C161.373 31.928 161.283 31.5387 161.101 31.208C160.92 30.8773 160.669 30.6213 160.349 30.44C160.029 30.248 159.656 30.152 159.229 30.152C158.803 30.152 158.424 30.248 158.093 30.44C157.773 30.6213 157.523 30.8827 157.341 31.224C157.16 31.5547 157.069 31.9493 157.069 32.408V32.792C157.069 33.2613 157.171 33.6773 157.373 34.04C157.587 34.392 157.88 34.664 158.253 34.856C158.637 35.0373 159.085 35.128 159.597 35.128C160.056 35.128 160.456 35.0587 160.797 34.92C161.149 34.7813 161.469 34.5733 161.757 34.296L163.085 35.736C162.691 36.184 162.195 36.5307 161.597 36.776C161 37.0107 160.312 37.128 159.533 37.128ZM168.251 37.128C167.515 37.128 166.806 37.0427 166.123 36.872C165.451 36.6907 164.918 36.4667 164.523 36.2L165.355 34.408C165.75 34.6533 166.214 34.856 166.747 35.016C167.291 35.1653 167.824 35.24 168.347 35.24C168.923 35.24 169.328 35.1707 169.563 35.032C169.808 34.8933 169.931 34.7013 169.931 34.456C169.931 34.2533 169.835 34.104 169.643 34.008C169.462 33.9013 169.216 33.8213 168.907 33.768C168.598 33.7147 168.256 33.6613 167.883 33.608C167.52 33.5547 167.152 33.4853 166.779 33.4C166.406 33.304 166.064 33.1653 165.755 32.984C165.446 32.8027 165.195 32.5573 165.003 32.248C164.822 31.9387 164.731 31.5387 164.731 31.048C164.731 30.504 164.886 30.024 165.195 29.608C165.515 29.192 165.974 28.8667 166.571 28.632C167.168 28.3867 167.883 28.264 168.715 28.264C169.302 28.264 169.899 28.328 170.507 28.456C171.115 28.584 171.622 28.7707 172.027 29.016L171.195 30.792C170.779 30.5467 170.358 30.3813 169.931 30.296C169.515 30.2 169.11 30.152 168.715 30.152C168.16 30.152 167.755 30.2267 167.499 30.376C167.243 30.5253 167.115 30.7173 167.115 30.952C167.115 31.1653 167.206 31.3253 167.387 31.432C167.579 31.5387 167.83 31.624 168.139 31.688C168.448 31.752 168.784 31.8107 169.147 31.864C169.52 31.9067 169.894 31.976 170.267 32.072C170.64 32.168 170.976 32.3067 171.275 32.488C171.584 32.6587 171.835 32.8987 172.027 33.208C172.219 33.5067 172.315 33.9013 172.315 34.392C172.315 34.9253 172.155 35.4 171.835 35.816C171.515 36.2213 171.051 36.5413 170.443 36.776C169.846 37.0107 169.115 37.128 168.251 37.128ZM179.087 28.264C179.77 28.264 180.378 28.4027 180.911 28.68C181.455 28.9467 181.882 29.3627 182.191 29.928C182.5 30.4827 182.655 31.1973 182.655 32.072V37H180.159V32.456C180.159 31.7627 180.004 31.2507 179.695 30.92C179.396 30.5893 178.97 30.424 178.415 30.424C178.02 30.424 177.663 30.5093 177.343 30.68C177.034 30.84 176.788 31.0907 176.607 31.432C176.436 31.7733 176.351 32.2107 176.351 32.744V37H173.855V28.392H176.239V30.776L175.791 30.056C176.1 29.48 176.543 29.0373 177.119 28.728C177.695 28.4187 178.351 28.264 179.087 28.264ZM187.814 37.128C187.078 37.128 186.368 37.0427 185.686 36.872C185.014 36.6907 184.48 36.4667 184.086 36.2L184.918 34.408C185.312 34.6533 185.776 34.856 186.31 35.016C186.854 35.1653 187.387 35.24 187.91 35.24C188.486 35.24 188.891 35.1707 189.126 35.032C189.371 34.8933 189.494 34.7013 189.494 34.456C189.494 34.2533 189.398 34.104 189.206 34.008C189.024 33.9013 188.779 33.8213 188.47 33.768C188.16 33.7147 187.819 33.6613 187.446 33.608C187.083 33.5547 186.715 33.4853 186.342 33.4C185.968 33.304 185.627 33.1653 185.318 32.984C185.008 32.8027 184.758 32.5573 184.566 32.248C184.384 31.9387 184.294 31.5387 184.294 31.048C184.294 30.504 184.448 30.024 184.758 29.608C185.078 29.192 185.536 28.8667 186.134 28.632C186.731 28.3867 187.446 28.264 188.278 28.264C188.864 28.264 189.462 28.328 190.07 28.456C190.678 28.584 191.184 28.7707 191.59 29.016L190.758 30.792C190.342 30.5467 189.92 30.3813 189.494 30.296C189.078 30.2 188.672 30.152 188.278 30.152C187.723 30.152 187.318 30.2267 187.062 30.376C186.806 30.5253 186.678 30.7173 186.678 30.952C186.678 31.1653 186.768 31.3253 186.95 31.432C187.142 31.5387 187.392 31.624 187.702 31.688C188.011 31.752 188.347 31.8107 188.71 31.864C189.083 31.9067 189.456 31.976 189.83 32.072C190.203 32.168 190.539 32.3067 190.838 32.488C191.147 32.6587 191.398 32.8987 191.59 33.208C191.782 33.5067 191.878 33.9013 191.878 34.392C191.878 34.9253 191.718 35.4 191.398 35.816C191.078 36.2213 190.614 36.5413 190.006 36.776C189.408 37.0107 188.678 37.128 187.814 37.128ZM198.506 37.128C197.78 37.128 197.146 36.968 196.602 36.648C196.058 36.328 195.631 35.8427 195.322 35.192C195.023 34.5307 194.874 33.6987 194.874 32.696C194.874 31.6827 195.018 30.8507 195.306 30.2C195.594 29.5493 196.01 29.064 196.554 28.744C197.098 28.424 197.748 28.264 198.506 28.264C199.316 28.264 200.042 28.4507 200.682 28.824C201.332 29.1867 201.844 29.6987 202.218 30.36C202.602 31.0213 202.794 31.8 202.794 32.696C202.794 33.6027 202.602 34.3867 202.218 35.048C201.844 35.7093 201.332 36.2213 200.682 36.584C200.042 36.9467 199.316 37.128 198.506 37.128ZM193.418 40.104V28.392H195.802V30.152L195.754 32.712L195.914 35.256V40.104H193.418ZM198.074 35.08C198.49 35.08 198.858 34.984 199.178 34.792C199.508 34.6 199.77 34.328 199.962 33.976C200.164 33.6133 200.266 33.1867 200.266 32.696C200.266 32.1947 200.164 31.768 199.962 31.416C199.77 31.064 199.508 30.792 199.178 30.6C198.858 30.408 198.49 30.312 198.074 30.312C197.658 30.312 197.284 30.408 196.954 30.6C196.623 30.792 196.362 31.064 196.17 31.416C195.978 31.768 195.882 32.1947 195.882 32.696C195.882 33.1867 195.978 33.6133 196.17 33.976C196.362 34.328 196.623 34.6 196.954 34.792C197.284 34.984 197.658 35.08 198.074 35.08Z" fill="white"/>
</svg>
